# xmcd CD database file
#
# Track frame offsets:
#	150
#	21245
#	44153
#	70193
#	83995
#	102795
#	124740
#	139260
#	160845
#	177863
#	191695
#	212888
#	237055
#	253475
#	271225
#	285730
#
# Disc length: 4038 seconds
#
# Revision: 2
# Processed by: cddbd v1.4b41PL1 Copyright (c) Steve Scherf et al.
# Submitted via: Feurio! 1.50.2ß - http://www.feurio.com
#
DISCID=f20fc410
DTITLE=Abba - Greatest Hits CD2
DYEAR=1900
DGENRE=
TTITLE0=Andante, andante
TTITLE1=Voulez vous
TTITLE2=The day before you came
TTITLE3=When I kissed the teacher
TTITLE4=Fernando
TTITLE5=The winner takes it all
TTITLE6=Dance
TTITLE7=Gimme, gimme, gimme
TTITLE8=Head over heals
TTITLE9=Rock me
TTITLE10=I have a dream
TTITLE11=Chiquitita
TTITLE12=On and on and on
TTITLE13=One of us
TTITLE14=Does your mother know
TTITLE15=Thank you for the music
EXTD=
EXTT0=
EXTT1=
EXTT2=
EXTT3=
EXTT4=
EXTT5=
EXTT6=
EXTT7=
EXTT8=
EXTT9=
EXTT10=
EXTT11=
EXTT12=
EXTT13=
EXTT14=
EXTT15=
PLAYORDER=
